<svg xmlns="http://www.w3.org/2000/svg" viewBox="0 0 200 56">
  <style type="text/css">.cls-0 {fill:#052B5A;}
.cls-1 {fill:#009E8E;}
.cls-2 {fill:#FF6D00;}
.cls-3 {fill:#00998B;}
.cls-4 {fill:#009688;}
.cls-5 {fill:#052C5B;}
.cls-7 {fill:#052C5A;}
.cls-8 {fill:#FF6D03;}</style>
  <path class="cls-0" d="m20.4 8.6v-1.2c0.1-0.3 0.3-0.4 0.6-0.4h24.6c2.4 0 4.3 2.8 4.3 5.2v34.9-0.3c0 0.2-0.3 0.3-0.5 0.2l-1.3-0.7v-34.2c0-1.7-1.2-3.3-3.1-3.3h-24.2c-0.3 0-0.4-0.1-0.4-0.2z"/>
  <path class="cls-7" d="m2.9 0.7c-0.8-0.3-1.6 0.2-1.5 0.9v51.6c0 0.8 0.8 1.2 1.5 0.9l14.7-6.8c0.3-0.1 0.5-0.2 0.5-0.5v-39.2c0-0.3-0.2-0.5-0.5-0.6l-14.7-6.3zm3.9 27.4c-0.9 0.1-1.6-0.6-1.6-1.5s0.7-1.9 1.6-1.9 1.6 0.7 1.6 1.6c0.1 0.9-0.7 1.8-1.6 1.8z"/>
  <path class="cls-8" d="m19.4 47.7-6.7 5.3c-0.4 0.4-0.1 1.1 0.4 1.1h40.9c0.6 0 0.9-0.7 0.4-1.1l-6.4-5.3c-0.1-0.1-0.2-0.1-0.4-0.1h-27.9c-0.1 0-0.2 0-0.3 0.1z"/>
  <path class="cls-3" d="m44.4 11.2h-22.8c-0.5 0-0.9 0.4-0.9 0.7v3.7c0 0.4 0.4 0.8 0.8 0.8h22.9c0.4 0 0.9-0.4 0.9-0.8v-3.5c0.1-0.5-0.3-0.9-0.9-0.9zm-8.3 3.5c-0.5 0-0.9-0.4-0.9-0.9s0.4-1 0.9-1 1 0.4 1 0.9-0.5 1-1 1zm3.2 0c-0.5 0-0.9-0.4-0.9-0.9s0.4-1 0.9-1 1 0.4 1 0.9-0.5 1-1 1zm3.2 0c-0.5 0-1-0.4-1-0.9s0.5-1 1-1 1 0.4 1 0.9-0.5 1-1 1z"/>
  <path class="cls-3" d="m45.8 22.5-0.4-3.1c0-0.3-0.3-0.5-0.5-0.5h-23.5c-0.2 0-0.5 0.2-0.5 0.5l-0.7 3.6c-0.1 2.9 3.5 4.9 5.7 2.5l0.8-1.2 0.1-0.7 0.1 0.7c1.1 3.4 5.4 3.4 6.1-0.4 0.6 3.6 5.3 4.1 6.4-0.3 1.2 4.4 6.5 4 6.6-0.3l-0.2-0.8z"/>
  <path class="cls-4" d="m32.3 38h-9.4c-0.4 0-0.7-0.3-0.7-0.6v-6.8c0-0.3 0.3-0.6 0.6-0.6h9.5c0.4 0 0.7 0.3 0.7 0.6v6.8c0.1 0.3-0.3 0.6-0.7 0.6z"/>
  <path class="cls-4" d="m43.2 38h-6.8c-0.3 0-0.7-0.3-0.7-0.6v-6.8c0-0.3 0.3-0.6 0.6-0.6h6.9c0.3 0 0.6 0.3 0.6 0.6v6.8c0 0.3-0.3 0.6-0.6 0.6z"/>
  <path class="cls-4" d="m43.2 42.1h-20.3c-0.4 0-0.7-0.3-0.7-0.7s0.3-0.9 0.7-0.9h20.3c0.4 0 0.7 0.3 0.7 0.8s-0.3 0.8-0.7 0.8z"/>
  <path class="cls-4" d="m30.7 45.2h-7.8c-0.4 0-0.7-0.3-0.7-0.7s0.3-0.8 0.7-0.8h7.7c0.4 0 0.8 0.3 0.8 0.8s-0.3 0.7-0.7 0.7z"/>
  <path class="cls-4" d="m43.2 45.2h-8.9c-0.4 0-0.7-0.3-0.7-0.7s0.3-0.8 0.7-0.8h8.9c0.4 0 0.7 0.3 0.7 0.8s-0.3 0.7-0.7 0.7z"/>
  <path class="cls-5" d="m58.5 31.5 1.9-2.2c0.2-0.2 0.4-0.1 0.4 0 0.9 0.8 2.5 2.2 5 2.2 2.2 0 3.5-1 3.5-2.4 0-1.7-1.9-2.3-4-2.9-3.4-0.9-6.4-2-6.4-5.8 0-3.2 2.5-6 6.8-6 2.9 0 5.1 1 6.8 2.5 0.1 0.1 0.1 0.3 0 0.4l-1.8 2.2c-0.1 0.2-0.3 0.2-0.4 0-0.8-0.9-2.2-1.9-4.1-1.9s-3.4 0.9-3.4 2.3c0 1.7 1.5 2.1 3.8 2.8 3.2 1 6.5 2 6.5 6.1 0 3.5-2.7 5.8-7.3 5.8-3.2 0-5.6-1.1-7.3-2.9-0.1 0.1-0.1-0.1 0-0.2z"/>
  <path class="cls-5" d="m75.1 16.4c0-1 0.8-2 2-2s2.2 1 2.2 2-0.9 2.1-2.1 2.1-2.1-1-2.1-2.1zm0.3 4.9c0-0.2 0.1-0.3 0.3-0.3h2.8c0.2 0 0.4 0.2 0.4 0.4v12.6c0 0.2-0.1 0.3-0.3 0.3h-2.8c-0.2 0-0.4-0.1-0.4-0.3v-12.7z"/>
  <path class="cls-5" d="m83.3 30v-6h-2.1c-0.2 0-0.4-0.1-0.4-0.3v-2.3c0-0.2 0.2-0.3 0.4-0.3h2.1v-4.2c0-0.2 0.1-0.3 0.3-0.3h2.9c0.2 0 0.4 0.1 0.4 0.3v4.1h3c0.6 0 0.7 0 0.7 0.3v2.3c0 0.3-0.1 0.3-0.6 0.3h-3.2v5.7c0 1.5 1 2 2.1 1.8 0.5-0.1 0.9-0.2 1.2-0.3 0.2-0.1 0.4 0 0.4 0.2l0.4 2.4c0 0.2-0.1 0.3-0.2 0.4-0.6 0.3-1.8 0.5-2.8 0.5-2.7 0-4.6-1.6-4.6-4.6z"/>
  <path class="cls-5" d="m92.1 27.8c0-3.9 2.6-6.9 6.6-6.9 4.1 0 6.1 3 6.1 6 0 1-0.1 1.8-0.1 1.8h-9.1c0.1 1.8 1.6 3 3.3 3 1.6 0 2.6-0.6 3.3-1.4 0.1-0.1 0.3-0.2 0.4 0l1.6 1.8c0.1 0.1 0.1 0.3 0 0.4-1.5 1.5-3.2 2.1-5.2 2.1-4 0-6.9-2.7-6.9-6.8zm9.5-1.4c-0.1-1.4-1.2-2.9-3-2.9-1.7 0-2.9 1.6-3 2.9h6z"/>
  <path class="cls-3" d="m107.6 15.6c0-0.2 0.1-0.3 0.3-0.3h2.9c0.2 0 0.4 0.1 0.4 0.3v8.4l7.9-8.6c0-0.1 0.2-0.1 0.3-0.1h3.7c0.3 0 0.4 0.3 0.2 0.5l-7.4 8.1 7.7 9.9c0.2 0.3 0 0.5-0.2 0.5h-3.6c-0.1 0-0.2 0-0.3-0.1l-6.2-8-2.1 1.9v5.9c0 0.2-0.1 0.3-0.3 0.3h-3c-0.2 0-0.3-0.1-0.3-0.3v-18.4z"/>
  <path class="cls-3" d="m124.5 30.5c0-2.2 1.7-4 5.1-4h3.3v-0.4c0-1.2-0.8-2.4-2.5-2.4-1.4 0-2.1 0.5-3 1.3-0.1 0.1-0.3 0.2-0.5 0l-1.6-1.5c-0.1-0.1-0.1-0.3 0-0.4 1-1.3 2.7-2.3 5.1-2.3 3.4 0 5.8 1.9 5.8 5.5v7.7c0 0.2-0.1 0.3-0.3 0.3h-2.5c-0.2 0-0.4-0.1-0.4-0.3v-1.3c-0.8 1.1-2.1 1.9-4.1 1.9-2.4 0-4.4-1.5-4.4-4.1zm8.4-1v-0.9h-2.6c-1.5 0-2.6 0.7-2.6 1.8 0 1.2 0.9 1.8 2.1 1.8 1.7 0 3.1-1.2 3.1-2.7z"/>
  <path class="cls-3" d="m138.4 21.6c0-0.2 0.2-0.4 0.4-0.4h2.6c0.2 0 0.4 0.2 0.4 0.4v1.3c1.1-1.5 2.6-2.1 4.1-2.1 3.4 0 6.5 2.7 6.5 7 0 4.1-2.7 6.8-6.2 6.8-1.9 0-3.3-0.9-4.3-1.9v6.1c0 0.2-0.1 0.4-0.3 0.4h-2.9c-0.2 0-0.3-0.2-0.3-0.4v-17.2zm6.9 10c2.2 0 3.6-1.7 3.6-3.8 0-1.9-1.4-4-3.5-4-2 0-3.6 1.6-3.6 3.9 0 2.4 1.6 3.9 3.5 3.9z"/>
  <path class="cls-3" d="m154 21.6c0-0.2 0.1-0.4 0.3-0.4h2.7c0.2 0 0.4 0.2 0.4 0.4v12.3c0 0.2-0.1 0.4-0.3 0.4h-2.7c-0.2 0-0.4-0.1-0.4-0.3v-12.4z"/>
  <path class="cls-3" d="m159.5 21.6c0-0.2 0.1-0.4 0.3-0.4h2.8c0.2 0 0.4 0.1 0.4 0.3v1.5c0.9-1.3 2.3-2.2 4.1-2.2 2.8 0 5.1 1.8 5.1 5.5v7.7c0 0.2-0.1 0.3-0.3 0.3h-2.7c-0.2 0-0.4-0.1-0.4-0.3v-7.1c0-2-1-3-2.5-3-1.7 0-3 1.4-3.1 3.1v7c0 0.2-0.2 0.3-0.4 0.3h-2.8c-0.2 0-0.5-0.1-0.5-0.3v-12.4z"/>
  <path class="cls-3" d="m173.8 27.8c0-3.9 2.6-6.9 6-6.9 1.7 0 3.2 0.8 4 1.8v-7.1c0-0.3 0.1-0.4 0.3-0.4h2.6c0.2 0 0.3 0.1 0.3 0.4v18.4c0 0.2-0.1 0.4-0.3 0.4h-2.4c-0.2 0-0.4-0.1-0.4-0.3v-1.5c-1 1.4-2.4 2-4.1 2-3.5 0-6-2.7-6-6.8zm6.6 3.8c1.8 0 3.5-1.5 3.5-3.7 0-2.3-1.5-4-3.4-4-2 0-3.4 1.5-3.4 3.9 0 2.3 1.4 3.8 3.3 3.8z"/>
  <path class="cls-3" d="m188.1 30.5c0-2.2 1.7-4 5.1-4h2.9v-0.4c0-1.2-0.8-2.4-2.5-2.4-1.4 0-2.1 0.5-3 1.3-0.1 0.1-0.3 0.2-0.4 0l-1.4-1.5c-0.1-0.1-0.1-0.3 0-0.4 1-1.3 2.7-2.2 5.2-2.2 3.4 0 4.6 1.8 4.6 5.4v7.7c0 0.2-0.1 0.3-0.3 0.3h-1.9c-0.2 0-0.3-0.1-0.3-0.3v-1.3c-0.8 1.3-2.2 1.9-3.6 1.9-2.6 0-4.4-1.2-4.4-4.1zm7.9-1v-0.9h-2.2c-1.5 0-2.5 0.7-2.5 1.8 0 1.2 0.9 1.8 2.1 1.8 1.4 0 2.6-1.1 2.6-2.7z"/>
  <text class="cls-2" transform="translate(72.4 50.2)" font-family="'BwModelica-Medium', Inter, Arial, sans-serif" font-size="12.2px">Web siten kapına geldi.</text>
</svg>
